<svg width="180" height="180" viewBox="0 0 180 180" fill="none" xmlns="http://www.w3.org/2000/svg">
<rect width="180" height="180" fill="#0B0D0F"/>
<path d="M138.208 84.1072C138.208 76.5386 133.461 69.6324 124.839 64.6536L75.6959 36.2782C67.0738 31.2994 58.7158 30.644 52.162 34.4283C45.6081 38.2127 42 45.7778 42 55.7319V112.479C42 121.01 44.7625 127.986 49.7801 132.126C53.0147 134.797 57.0774 136.182 61.5136 136.182H61.5875C62.9688 140.185 65.4036 143.289 68.7651 145.227C71.1329 146.594 73.7756 147.274 76.5839 147.274C80.2801 147.274 84.2653 146.097 88.3103 143.765L127.172 121.327C133.736 117.539 137.633 112.25 138.151 106.436C138.507 102.454 137.239 98.5468 134.54 95.1149C136.946 91.7357 138.208 88.0078 138.208 84.1037V84.1072ZM129.237 105.643C128.986 108.469 126.661 111.288 122.693 113.578L83.8319 136.017C79.66 138.427 75.7981 138.959 73.2365 137.479C70.6748 135.999 69.2055 132.387 69.2055 127.57V82.6943C69.2055 77.8775 70.6748 74.2659 73.2365 72.786C74.1914 72.2363 75.326 71.965 76.5874 71.965C78.7192 71.965 81.2139 72.7366 83.8354 74.2483L87.6937 76.4787C88.039 76.7007 88.5429 77.571 88.564 77.9762V101.225C88.564 106.951 90.8262 111.538 94.7655 113.814C98.7049 116.087 103.811 115.752 108.775 112.884L124.843 103.561C125.998 102.895 127.08 102.194 128.095 101.461C128.87 102.669 129.381 104.082 129.24 105.643H129.237ZM125.565 91.9084C125.428 92.0247 125.301 92.1515 125.177 92.289C123.867 93.5398 122.253 94.7237 120.361 95.816L104.293 105.139C102.211 106.341 100.319 106.69 99.2369 106.063C98.1552 105.439 97.5104 103.628 97.5104 101.221V77.9727C97.5104 74.4033 95.2659 70.5168 92.1757 68.7303L88.3103 66.4999C81.1927 62.3879 74.2513 61.8699 68.7651 65.0376C63.2789 68.2053 60.2592 74.4738 60.2592 82.6943V127.172C58.6418 127 56.9611 126.45 55.4741 125.224C52.5566 122.814 50.9464 118.289 50.9464 112.476V55.7319C50.9464 49.1111 52.9654 44.2943 56.6369 42.1767C58.0499 41.3627 59.6848 40.9575 61.4889 40.9575C64.3747 40.9575 67.6904 41.9899 71.221 44.0266L120.368 72.4019C126.104 75.7141 129.261 79.8719 129.261 84.1072C129.261 86.8063 127.979 89.4736 125.565 91.9084V91.9084Z" fill="#66A1FF"/>
<path d="M61.4888 40.9573C59.6848 40.9573 58.0463 41.3625 56.6369 42.1764C52.9688 44.2941 50.9463 49.1073 50.9463 55.7316V112.479C50.9463 118.289 52.553 122.817 55.4741 125.227C56.9575 126.453 58.6418 126.999 60.2591 127.176V82.6975C60.2591 74.477 63.2788 68.2086 68.765 65.0409C74.2477 61.8767 81.1891 62.3947 88.3103 66.5032L92.1756 68.7336C95.2658 70.5165 97.5103 74.403 97.5103 77.9759V101.224C97.5103 103.631 98.1551 105.442 99.2369 106.066C100.319 106.69 102.207 106.344 104.293 105.143L120.361 95.8193C122.256 94.727 123.867 93.5396 125.177 92.2922C125.301 92.1548 125.431 92.0315 125.565 91.9117C127.979 89.4734 129.261 86.8095 129.261 84.1105C129.261 79.8752 126.104 75.7173 120.368 72.4052L71.2209 44.0263C67.6938 41.9897 64.3746 40.9573 61.4888 40.9573Z" fill="#143466"/>
</svg>
